<svg width="100" height="51" viewBox="0 0 100 51" fill="none" xmlns="http://www.w3.org/2000/svg">
<path d="M68.7221 2.5038H29.8792C15.0276 2.5038 2.98801 12.5925 2.98801 25.0375C2.98801 37.4824 15.0276 47.5711 29.8792 47.5711H68.7221C83.5737 47.5711 95.6133 37.4824 95.6133 25.0375C95.6133 12.5925 83.5737 2.5038 68.7221 2.5038Z" fill="#E21E27"/>
<path d="M70.125 0C86.5998 0 99.9996 11.2283 100 25.035C100 38.8419 86.5984 50.0746 70.1237 50.0748H29.882C13.4048 50.0748 0 38.8386 0 25.035C0.000369225 11.2318 13.4072 0 29.882 0H70.125ZM56.9931 26.1668C54.9362 34.1982 48.2031 37.945 35.5815 37.945H10.4307C14.9801 42.7353 21.9991 45.8146 29.8569 45.8146H70.0987C77.9563 45.8145 84.9712 42.7393 89.5207 37.9473H68.1144L68.1173 37.945L56.9931 26.1668ZM77.1335 23.4889L90.5141 36.8249C93.2862 33.4693 94.9144 29.4001 94.9146 25.0188C94.9146 20.3942 93.1018 16.1163 90.0417 12.6584L77.1335 23.4889ZM19.1788 28.6467H33.5779C37.8346 28.6467 39.1223 27.1699 40.075 24.3272C41.0172 21.5162 38.6486 20.4256 35.7398 20.4255H22.7484L19.1788 28.6467ZM29.8555 4.22296C22.3072 4.22314 15.5351 7.06079 10.9796 11.5302H39.2122L39.2135 11.5314C49.2062 11.5314 56.7353 13.6627 57.5115 20.7179L68.0283 11.5302H88.9703C84.4148 7.06255 77.6449 4.22309 70.0987 4.22296H29.8555Z" fill="white"/>
</svg>
